<svg width="42" height="42" viewBox="0 0 42 42" fill="none" xmlns="http://www.w3.org/2000/svg">
<rect width="20" height="20" rx="3" fill="#23242A"/>
<rect y="22" width="20" height="20" rx="3" fill="#23242A"/>
<rect x="22" width="20" height="20" rx="3" fill="#23242A"/>
<rect x="22" y="22" width="20" height="20" rx="3" fill="#23242A"/>
<rect width="3.39567" height="15.8465" transform="matrix(0.720521 -0.693433 0.720521 0.693433 25 5.35474)" fill="#D9D9D9"/>
<rect width="3.39567" height="15.8465" transform="matrix(0.720521 0.693433 -0.720521 0.693433 36.418 3)" fill="#D9D9D9"/>
<rect width="3.39567" height="15.8465" transform="matrix(0.720521 -0.693433 0.720521 0.693433 3 27.3547)" fill="#D9D9D9"/>
<rect width="3.39567" height="15.8465" transform="matrix(0.720521 0.693433 -0.720521 0.693433 14.418 25)" fill="#D9D9D9"/>
<path d="M16.0469 10C16.0469 12.9839 13.5167 15.5 10.2734 15.5C7.03016 15.5 4.5 12.9839 4.5 10C4.5 7.01609 7.03016 4.5 10.2734 4.5C13.5167 4.5 16.0469 7.01609 16.0469 10Z" stroke="#00A86B" stroke-width="3"/>
<path d="M38.0469 32C38.0469 34.9839 35.5167 37.5 32.2734 37.5C29.0302 37.5 26.5 34.9839 26.5 32C26.5 29.0161 29.0302 26.5 32.2734 26.5C35.5167 26.5 38.0469 29.0161 38.0469 32Z" stroke="#00A86B" stroke-width="3"/>
<path d="M3 4.41418L4.41421 2.99997L39.1814 37.7672L37.7672 39.1814L3 4.41418Z" fill="#00A86B"/>
</svg>
